# File created by Blade
# Date/Time:  Wed Jan 21 14:37:15 2015
# Frame Rate: 120.000 fps
#------------------------------------------------------
:FULLY-SPECIFIED
:DEGREES
631
root 18.657400 35.533373 -21.936559 -172.852846 -1.585923 -178.240651
Spine -22.549359 -17.221887 7.013345
Head 7.301415 10.285590 2.194468
LeftShoulder 109.952274 -77.349073 -65.285766
LeftArm 44.628497 39.658768 -101.021631
LeftForeArm 38.881217 -0.000000 71.381841
LeftHand -3.372992 -0.000000 -9.700742
LeftHandThumb1 -26.253704 0.000000 33.147579
RightShoulder 10.811608 3.302823 5.725690
RightArm 48.773959 -13.933896 57.234294
RightForeArm 34.590807 -0.000000 131.732651
RightHand 3.863922 -0.000000 -3.918247
RightHandThumb1 -24.326973 -0.000000 -32.862282
LeftUpLeg 0.602744 13.234145 1.944890
LeftLeg -6.255244 -0.000000 0.000000
LeftFoot -20.232520 29.219922 -11.816777
LeftToeBase 27.023296 -0.000000 -0.000000
RightUpLeg -0.017013 -9.119370 1.765940
RightLeg -3.828531 -0.000000 0.000000
RightFoot -20.017976 -25.387518 14.685013
RightToeBase 23.584676 -0.000000 -0.000000
632
root 18.656827 35.533564 -21.931834 -172.858806 -1.589336 -178.242907
Spine -22.555324 -17.213367 7.010774
Head 7.314718 10.289737 2.170360
LeftShoulder 110.433951 -77.297323 -65.713720
LeftArm 44.562157 39.629304 -101.038639
LeftForeArm 38.928782 0.000000 71.370765
LeftHand -3.407693 -0.000000 -9.705739
LeftHandThumb1 -26.253704 0.000000 33.147579
RightShoulder 10.799018 3.278606 5.715698
RightArm 48.805245 -13.904705 57.242601
RightForeArm 34.515630 -0.000000 131.715256
RightHand 3.831930 -0.000000 -3.740143
RightHandThumb1 -24.326973 -0.000000 -32.862282
LeftUpLeg 0.593964 13.240333 1.941467
LeftLeg -6.242089 -0.000000 0.000000
LeftFoot -20.226915 29.208781 -11.804776
LeftToeBase 26.979578 -0.000000 -0.000000
RightUpLeg -0.013627 -9.132742 1.762378
RightLeg -3.839106 -0.000000 0.000000
RightFoot -19.998965 -25.360397 14.763438
RightToeBase 23.437330 -0.000000 -0.000000
633
root 18.657072 35.534284 -21.927082 -172.860778 -1.597430 -178.242010
Spine -22.567809 -17.217570 7.013963
Head 7.330837 10.301350 2.169499
LeftShoulder 110.315353 -77.312410 -65.607365
LeftArm 44.651525 39.693445 -100.960877
LeftForeArm 38.857258 -0.000000 71.392163
LeftHand -3.600874 -0.000000 -9.916611
LeftHandThumb1 -26.253704 0.000000 33.147579
RightShoulder 10.786110 3.304176 5.723754
RightArm 48.816893 -13.906194 57.248501
RightForeArm 34.437073 0.000000 131.693166
RightHand 4.150176 0.000000 -3.785154
RightHandThumb1 -24.326973 -0.000000 -32.862282
LeftUpLeg 0.581062 13.223260 1.943075
LeftLeg -6.231844 -0.000000 0.000000
LeftFoot -20.233219 29.221762 -11.815378
LeftToeBase 26.979617 -0.000000 -0.000000
RightUpLeg -0.023668 -9.149153 1.766975
RightLeg -3.830313 -0.000000 0.000000
RightFoot -19.994802 -25.380250 14.686769
RightToeBase 23.566877 -0.000000 -0.000000
634
root 18.656320 35.534244 -21.922198 -172.870585 -1.586596 -178.243559
Spine -22.566228 -17.217445 7.017450
Head 7.336648 10.321199 2.158062
LeftShoulder 109.962711 -77.361831 -65.232581
LeftArm 44.805756 39.738828 -100.831461
LeftForeArm 38.896539 0.000000 71.393433
LeftHand -3.651103 0.000000 -9.990402
LeftHandThumb1 -26.253704 0.000000 33.147579
RightShoulder 10.784613 3.334338 5.719035
RightArm 48.828010 -13.915186 57.254345
RightForeArm 34.346368 0.000000 131.687525
RightHand 4.000744 0.000000 -3.907618
RightHandThumb1 -24.326973 -0.000000 -32.862282
LeftUpLeg 0.568532 13.283382 1.936963
LeftLeg -6.204390 -0.000000 0.000000
LeftFoot -20.231200 29.178323 -11.795691
LeftToeBase 26.979321 -0.000000 -0.000000
RightUpLeg -0.023231 -9.143004 1.763784
RightLeg -3.828564 -0.000000 0.000000
RightFoot -20.006582 -25.426118 14.577425
RightToeBase 23.810632 -0.000000 -0.000000
635
root 18.655504 35.535116 -21.916337 -172.873563 -1.575342 -178.240636
Spine -22.574533 -17.200693 7.027249
Head 7.362113 10.350010 2.144143
LeftShoulder 109.692071 -77.371687 -64.958700
LeftArm 44.921978 39.786382 -100.712884
LeftForeArm 38.910842 0.000000 71.403229
LeftHand -3.678154 0.000000 -10.084462
LeftHandThumb1 -26.253704 0.000000 33.147579
RightShoulder 10.781139 3.375265 5.726606
RightArm 48.808380 -13.931733 57.241239
RightForeArm 34.169955 -0.000000 131.686257
RightHand 4.007178 -0.000000 -3.997056
RightHandThumb1 -24.326973 -0.000000 -32.862282
LeftUpLeg 0.575736 13.226277 1.938063
LeftLeg -6.222883 -0.000000 0.000000
LeftFoot -20.235091 29.229167 -11.825955
LeftToeBase 26.985327 -0.000000 -0.000000
RightUpLeg -0.032933 -9.125255 1.765019
RightLeg -3.829427 -0.000000 0.000000
RightFoot -19.989345 -25.390319 14.689060
RightToeBase 23.573797 -0.000000 -0.000000
636
root 18.655219 35.535407 -21.911134 -172.885154 -1.565003 -178.237830
Spine -22.577482 -17.199090 7.034383
Head 7.395925 10.378805 2.144491
LeftShoulder 109.349096 -77.379520 -64.609810
LeftArm 45.066107 39.872494 -100.539313
LeftForeArm 39.378371 -0.000000 71.256559
LeftHand -3.355453 0.000000 -9.698653
LeftHandThumb1 -26.253704 0.000000 33.147579
RightShoulder 10.795759 3.423303 5.740098
RightArm 48.770755 -13.949257 57.225949
RightForeArm 34.032668 -0.000000 131.683585
RightHand 4.102537 -0.000000 -4.029302
RightHandThumb1 -24.326973 -0.000000 -32.862282
LeftUpLeg 0.560087 13.283525 1.938417
LeftLeg -6.189160 -0.000000 0.000000
LeftFoot -20.238476 29.195155 -11.808258
LeftToeBase 26.832077 -0.000000 -0.000000
RightUpLeg -0.037390 -9.136736 1.766453
RightLeg -3.815412 -0.000000 0.000000
RightFoot -19.978675 -25.356197 14.701356
RightToeBase 23.529737 -0.000000 -0.000000
637
root 18.654600 35.536236 -21.905509 -172.896000 -1.555545 -178.238950
Spine -22.575266 -17.189032 7.035563
Head 7.417355 10.389104 2.122187
LeftShoulder 109.816389 -77.402243 -65.033989
LeftArm 44.964534 39.848393 -100.646785
LeftForeArm 39.285027 -0.000000 71.309033
LeftHand -3.489459 -0.000000 -9.892760
LeftHandThumb1 -26.253704 0.000000 33.147579
RightShoulder 10.792413 3.410429 5.744256
RightArm 48.791438 -13.914161 57.212545
RightForeArm 33.973288 -0.000000 131.677205
RightHand 4.045120 -0.000000 -3.968250
RightHandThumb1 -24.326973 -0.000000 -32.862282
LeftUpLeg 0.561656 13.265066 1.937641
LeftLeg -6.181037 -0.000000 0.000000
LeftFoot -20.235949 29.212515 -11.800233
LeftToeBase 27.022185 -0.000000 -0.000000
RightUpLeg -0.038147 -9.128716 1.761257
RightLeg -3.811497 -0.000000 0.000000
RightFoot -19.958672 -25.349194 14.727957
RightToeBase 23.432264 -0.000000 -0.000000
638
root 18.654017 35.536990 -21.899813 -172.913036 -1.538187 -178.238412
Spine -22.569609 -17.174233 7.034767
Head 7.464756 10.405177 2.114105
LeftShoulder 109.972506 -77.394919 -65.174432
LeftArm 44.912287 39.847599 -100.662358
LeftForeArm 39.000714 -0.000000 71.447458
LeftHand -3.742901 -0.000000 -10.252006
LeftHandThumb1 -26.253704 0.000000 33.147579
RightShoulder 10.808682 3.469780 5.752782
RightArm 48.730525 -13.921042 57.220301
RightForeArm 33.989842 -0.000000 131.681154
RightHand 3.922150 -0.000000 -4.046978
RightHandThumb1 -24.326973 -0.000000 -32.862282
LeftUpLeg 0.568632 13.279130 1.937732
LeftLeg -6.173428 -0.000000 0.000000
LeftFoot -20.239948 29.213240 -11.811416
LeftToeBase 27.026087 -0.000000 -0.000000
RightUpLeg -0.042040 -9.115345 1.760653
RightLeg -3.797780 -0.000000 0.000000
RightFoot -19.964724 -25.350727 14.761049
RightToeBase 23.414054 -0.000000 -0.000000
